<svg width="182" height="177" viewBox="0 0 182 177" fill="none" xmlns="http://www.w3.org/2000/svg">
<path fill-rule="evenodd" clip-rule="evenodd" d="M122.297 16.602C123.458 13.7952 126.675 12.4613 129.482 13.6227C139.802 17.8925 149.084 24.1436 156.854 31.8975C172.123 47.1332 181.578 68.1999 181.578 91.461C181.578 102.873 179.301 113.768 175.171 123.707C174.006 126.512 170.787 127.842 167.982 126.676C165.177 125.511 163.848 122.292 165.013 119.487C168.597 110.86 170.578 101.399 170.578 91.461C170.578 71.2421 162.372 52.943 149.084 39.6841L149.084 39.6839C142.32 32.9342 134.245 27.4977 125.276 23.787C122.47 22.6256 121.136 19.4088 122.297 16.602ZM72.0614 16.602C73.2227 19.4088 71.8888 22.6256 69.082 23.787C60.1136 27.4977 52.0383 32.9342 45.2739 39.6841L41.3889 35.7908L45.2738 39.6841C31.9863 52.9431 23.7798 71.2421 23.7798 91.461C23.7798 94.4986 21.3174 96.961 18.2798 96.961C15.2423 96.961 12.7798 94.4986 12.7798 91.461C12.7798 68.1999 22.2356 47.1332 37.504 31.8975C45.2746 24.1437 54.5567 17.8925 64.8765 13.6226C67.6833 12.4613 70.9001 13.7952 72.0614 16.602ZM31.038 134.752C33.4524 132.909 36.9039 133.372 38.7471 135.787C41.9332 139.96 45.5587 143.783 49.5544 147.185L49.5546 147.186C62.3752 158.103 78.9983 164.691 97.1792 164.691C107.143 164.691 116.63 162.714 125.276 159.136C128.083 157.975 131.3 159.308 132.461 162.115C133.623 164.922 132.289 168.139 129.482 169.3C119.525 173.42 108.61 175.691 97.1792 175.691C76.2903 175.691 57.1604 168.111 42.4229 155.561C37.8316 151.651 33.6657 147.258 30.0038 142.461C28.1606 140.047 28.6236 136.596 31.038 134.752Z" fill="url(#paint0_linear_334_4985)"/>
<path fill-rule="evenodd" clip-rule="evenodd" d="M157.999 144.617C159.505 140.782 155.986 136.874 152.014 137.971L121.835 146.303C118.252 147.292 116.963 151.706 119.45 154.469L138.188 175.279C140.675 178.041 145.199 177.22 146.558 173.761L157.999 144.617Z" fill="url(#paint1_linear_334_4985)"/>
<path fill-rule="evenodd" clip-rule="evenodd" d="M95.5242 9.90506C91.5742 11.0798 90.6612 16.259 93.9702 18.7135L119.117 37.3651C122.102 39.5794 126.374 37.8779 127.02 34.2175L131.882 6.63966C132.528 2.97916 129.095 -0.0808449 125.533 0.978855L95.5242 9.90506Z" fill="url(#paint2_linear_334_4985)"/>
<path fill-rule="evenodd" clip-rule="evenodd" d="M21.0914 116.685C23.7158 119.861 28.84 118.678 29.8064 114.673L37.1498 84.2369C38.0216 80.6239 34.7862 77.3569 31.1645 78.1929L3.87903 84.4919C0.257432 85.3279 -1.21817 89.6829 1.14933 92.5489L21.0914 116.685Z" fill="url(#paint3_linear_334_4985)"/>
<path d="M123.108 91.746C122.835 90.654 121.743 89.835 120.651 89.835H104.272L114.918 57.8948C115.191 56.8028 114.918 55.4379 113.826 54.8919C112.734 54.0729 111.642 54.3459 110.55 54.8919L64.1421 90.381C63.3231 91.2 62.7771 92.292 63.3231 93.384C63.8691 94.476 64.961 95.295 66.0532 95.295H82.4322L71.7862 127.235C71.5132 128.327 71.7862 129.691 72.8782 130.237C73.1512 130.51 73.6972 130.783 74.2432 130.783C74.7892 130.783 75.3352 130.51 75.8802 130.237L122.289 94.749C123.108 93.93 123.654 92.838 123.108 91.746Z" fill="url(#paint4_linear_334_4985)"/>
<defs>
<linearGradient id="paint0_linear_334_4985" x1="15.4173" y1="13.2034" x2="172.523" y2="181.676" gradientUnits="userSpaceOnUse">
<stop stop-color="#009CE6"/>
<stop offset="1" stop-color="#8EFFF1"/>
</linearGradient>
<linearGradient id="paint1_linear_334_4985" x1="118.163" y1="176.934" x2="158.424" y2="176.864" gradientUnits="userSpaceOnUse">
<stop stop-color="#8EFFF1"/>
<stop offset="1" stop-color="#009CE6"/>
</linearGradient>
<linearGradient id="paint2_linear_334_4985" x1="92.5724" y1="0.766235" x2="128.842" y2="40.6229" gradientUnits="userSpaceOnUse">
<stop stop-color="#009CE6"/>
<stop offset="1" stop-color="#8EFFF1"/>
</linearGradient>
<linearGradient id="paint3_linear_334_4985" x1="0.58271" y1="78.0609" x2="39.7332" y2="115.328" gradientUnits="userSpaceOnUse">
<stop stop-color="#009CE6"/>
<stop offset="1" stop-color="#8EFFF1"/>
</linearGradient>
<linearGradient id="paint4_linear_334_4985" x1="113.496" y1="47" x2="68.9962" y2="140" gradientUnits="userSpaceOnUse">
<stop stop-color="#FCFF61"/>
<stop offset="1" stop-color="#FB9F97"/>
</linearGradient>
</defs>
</svg>
